<?xml version="1.0" standalone="no"?>
<!DOCTYPE svg PUBLIC "-//W3C//DTD SVG 20010904//EN"
 "http://www.w3.org/TR/2001/REC-SVG-20010904/DTD/svg10.dtd">
<svg version="1.0" xmlns="http://www.w3.org/2000/svg"
 width="512.000000pt" height="512.000000pt" viewBox="0 0 512.000000 512.000000"
 preserveAspectRatio="xMidYMid meet">

<g transform="translate(0.000000,512.000000) scale(0.100000,-0.100000)"
fill="#000000" stroke="none">
<path d="M240 5106 c-90 -24 -172 -95 -214 -185 l-21 -46 0 -2315 0 -2315 22
-47 c30 -66 96 -133 162 -165 l56 -28 2315 0 2315 0 56 28 c66 32 132 99 162
165 l22 47 0 2315 0 2315 -28 56 c-32 66 -99 132 -165 162 l-47 22 -2295 2
c-1792 1 -2305 -1 -2340 -11z m2352 -1466 c320 -30 360 -105 308 -575 -24
-219 -21 -299 12 -376 11 -26 32 -59 48 -74 l29 -28 64 46 c114 81 235 230
360 441 69 118 202 384 228 459 l13 37 433 0 c256 0 433 -4 433 -9 0 -18 -79
-228 -126 -336 -83 -190 -116 -241 -267 -419 -119 -140 -178 -226 -206 -301
-45 -119 -17 -186 137 -330 245 -230 389 -380 416 -433 53 -105 42 -202 -26
-239 -28 -15 -73 -18 -328 -25 -509 -12 -561 6 -776 264 -60 72 -128 147 -152
168 -71 63 -160 71 -210 17 -34 -36 -50 -86 -71 -223 -33 -206 -19 -187 -147
-202 -134 -16 -377 -9 -489 13 -413 85 -722 315 -1025 765 -165 246 -296 479
-415 745 -70 154 -235 542 -235 551 0 2 166 4 369 4 l369 0 148 -267 c166
-301 184 -331 298 -493 138 -196 206 -252 265 -219 70 40 106 183 106 424 0
175 -12 248 -52 333 -19 40 -82 84 -148 102 -25 7 -48 16 -50 20 -9 15 38 61
86 86 68 34 198 63 326 73 157 12 158 12 275 1z"/>
</g>
</svg>
