<?xml version="1.0" standalone="no"?>
<!DOCTYPE svg PUBLIC "-//W3C//DTD SVG 20010904//EN"
 "http://www.w3.org/TR/2001/REC-SVG-20010904/DTD/svg10.dtd">
<svg version="1.0" xmlns="http://www.w3.org/2000/svg"
 width="512.000000pt" height="512.000000pt" viewBox="0 0 512.000000 512.000000"
 preserveAspectRatio="xMidYMid meet">

<g transform="translate(0.000000,512.000000) scale(0.100000,-0.100000)"
fill="#000000" stroke="none">
<path d="M772 4800 c-223 -59 -395 -232 -452 -456 -19 -75 -20 -116 -20 -1391
l0 -1313 60 0 60 0 0 1308 c0 1436 -3 1357 61 1484 40 79 128 167 207 207 128
64 42 61 1544 61 l1368 0 0 60 0 60 -1377 -1 c-1323 0 -1381 -1 -1451 -19z"/>
<path d="M3680 4760 l0 -60 288 0 c223 0 301 -3 345 -15 185 -48 324 -187 372
-372 23 -86 23 -3420 0 -3506 -48 -185 -187 -324 -372 -372 -86 -23 -3420 -23
-3506 0 -185 48 -324 187 -372 372 -11 43 -15 118 -15 305 l0 248 -60 0 -60 0
0 -253 c0 -220 3 -264 20 -331 57 -225 231 -399 456 -456 76 -20 114 -20 1784
-20 1666 0 1709 0 1784 20 225 57 399 231 456 456 20 76 20 114 20 1784 0
1670 0 1708 -20 1784 -57 225 -231 399 -456 456 -68 18 -111 20 -371 20 l-293
0 0 -60z"/>
<path d="M2347 3540 c-142 -16 -237 -49 -313 -107 -42 -32 -79 -102 -71 -134
7 -26 43 -49 77 -49 93 0 127 -112 117 -386 -6 -167 -20 -234 -51 -234 -19 0
-75 55 -117 116 -17 26 -76 140 -130 255 -145 309 -206 407 -266 430 -32 12
-406 11 -501 -1 -125 -16 -172 -53 -172 -135 0 -123 199 -509 485 -940 203
-307 335 -451 534 -585 211 -142 496 -210 758 -182 57 7 113 16 123 22 38 20
51 57 65 183 14 128 29 182 58 206 15 12 38 -7 205 -171 181 -179 221 -210
286 -229 66 -19 256 -28 437 -20 164 7 192 10 233 31 63 30 86 68 86 142 0
126 -59 215 -305 462 -99 100 -177 186 -181 200 -13 53 7 87 168 291 131 166
227 310 281 422 36 76 42 97 42 155 0 57 -4 70 -25 93 -47 50 -107 59 -397 58
-322 -1 -358 -5 -395 -45 -15 -17 -75 -124 -132 -238 -58 -115 -130 -249 -161
-300 -69 -111 -158 -210 -175 -194 -23 23 -31 149 -25 379 7 236 1 303 -31
371 -21 43 -57 65 -172 104 -105 35 -208 44 -335 30z m298 -144 c39 -13 78
-27 87 -31 32 -13 41 -101 33 -334 -11 -331 13 -453 97 -494 118 -58 260 101
478 534 60 118 115 221 124 228 17 14 527 20 585 7 31 -8 33 -10 28 -42 -14
-84 -142 -287 -326 -519 -132 -166 -171 -236 -171 -310 0 -74 35 -122 216
-302 216 -215 273 -292 274 -369 0 -52 -15 -57 -208 -66 -198 -8 -377 4 -426
29 -17 8 -114 97 -216 197 -102 100 -200 188 -217 195 -74 30 -166 -26 -202
-123 -11 -29 -26 -104 -33 -167 l-13 -114 -50 -8 c-27 -4 -106 -6 -175 -2
-334 14 -603 164 -857 478 -131 163 -392 578 -524 834 -65 126 -119 266 -107
278 15 15 141 25 315 25 l191 0 26 -31 c24 -28 89 -156 239 -469 61 -128 137
-233 197 -275 57 -39 124 -44 169 -13 75 50 100 149 100 398 0 216 -39 354
-116 401 -18 11 -31 25 -28 30 10 16 140 50 226 59 116 12 202 5 284 -24z"/>
<path d="M300 1500 l0 -60 60 0 60 0 0 60 0 60 -60 0 -60 0 0 -60z"/>
</g>
</svg>
