<svg width="61" height="63" viewBox="0 0 61 63" fill="none" xmlns="http://www.w3.org/2000/svg">
<path d="M30.4985 63C18.4738 63 8.68835 52.8937 8.68835 40.4747C8.68835 28.4991 28.4664 1.70806 29.3068 0.576605C29.8742 -0.192202 31.1199 -0.192202 31.6901 0.576605C32.5306 1.70814 52.3117 28.4991 52.3117 40.4747C52.3117 52.8937 42.5263 63 30.4985 63ZM30.4985 4.10763C26.191 10.1342 11.69 31.1217 11.69 40.4748C11.69 51.1856 20.1277 59.8999 30.4985 59.8999C40.8723 59.8999 49.3101 51.1856 49.3101 40.4748C49.3101 31.1217 34.8088 10.1342 30.4985 4.10763Z" fill="black"/>
<path d="M31.6691 57.1005C31.0328 57.1005 30.4415 56.6789 30.2374 56.0185C29.9882 55.2032 30.4235 54.3321 31.2129 54.0716C37.2222 52.0938 41.8448 47.1739 43.5827 40.9118C43.8109 40.0841 44.6454 39.6036 45.4378 39.8485C46.2333 40.0841 46.6956 40.9428 46.4674 41.7644C44.4563 49.0278 39.0922 54.7352 32.1254 57.026C31.9723 57.0788 31.8222 57.1005 31.6691 57.1005Z" fill="black"/>
</svg>
