<svg id="SvgjsSvg1001" width="288" height="288" xmlns="http://www.w3.org/2000/svg" version="1.1" xmlns:xlink="http://www.w3.org/1999/xlink" xmlns:svgjs="http://svgjs.com/svgjs"><defs id="SvgjsDefs1002"></defs><g id="SvgjsG1008"><svg xmlns="http://www.w3.org/2000/svg" width="288" height="288" fill="none" viewBox="0 0 1355 1546"><path fill="#b3b3b3" d="M211.11 265.751L321.414 218.708C350.512 206.298 383.766 208.388 411.081 224.343L545.404 302.804C562.124 312.57 581.319 317.272 600.66 316.339L639.839 314.45C707.744 311.174 759.054 375.154 741.11 440.728L728.008 488.607C725.871 496.417 724.69 504.457 724.492 512.55L721.337 641.259C719.591 712.467 646.073 759.071 580.927 730.266L556.538 719.482C539.178 711.806 519.991 709.23 501.221 712.054L450.96 719.616C401.401 727.073 354.169 696.043 341.337 647.597C332.003 612.36 303.932 585.184 268.411 576.996L198.077 560.782C142.406 547.949 108.782 491.164 124.298 436.18L154.098 330.577C162.315 301.455 183.277 277.621 211.11 265.751Z" class="colorF7C6CC svgShape"></path><path fill="#000000" d="M1049.77 225.139L1157.98 228.096C1188.3 228.924 1216.61 243.474 1234.94 267.649L1269.22 312.869C1301.1 354.927 1293.34 414.783 1251.8 447.331C1220.79 471.623 1207.63 512.305 1218.53 550.157L1236.86 613.786C1244.94 641.853 1240.35 672.052 1224.29 696.448L1119.39 855.799C1093.96 894.426 1045.36 910.579 1001.87 894.859L911.686 862.263C899.57 857.883 886.721 855.887 873.847 856.382L788.126 859.683C741.531 861.476 699.881 830.829 687.732 785.811L665.142 702.099C652.599 655.624 674.73 606.052 713.841 577.989C764.059 541.957 811.996 500.67 814.113 498.592C817.178 495.584 814.287 498.422 850.754 336.043C852.927 326.369 856.545 317.031 861.459 308.42L879.731 276.403C897.352 245.524 930.043 226.324 965.594 225.972L1049.77 225.139Z" class="colorA71B45 svgShape"></path><path fill="#5f5f5f" d="M129.923 1109.32L150.292 1013.58C155.697 988.18 170.772 965.877 192.328 951.392L258.822 906.709C264.616 902.816 270.801 899.54 277.277 896.935L425.557 837.288C430.576 835.269 435.751 833.66 441.031 832.478L528.134 812.98C547.795 808.578 565.669 798.34 579.412 783.607L672.721 683.58C691.705 663.229 718.31 651.71 746.14 651.793L774.177 651.875C801.7 651.957 827.972 663.378 846.805 683.448L991.126 837.252C1035 884.01 1024.16 959.397 968.878 991.889L942.236 1007.55C921.138 1019.95 905.32 1039.66 897.778 1062.94L859.491 1181.12C857.287 1187.93 854.36 1194.47 850.758 1200.65L792.092 1301.32C772.096 1335.64 733.689 1354.86 694.236 1350.31L643.493 1344.46C622.234 1342.01 602.321 1332.8 586.683 1318.19L491.763 1229.52C463.014 1202.66 421.188 1195.15 384.895 1210.34L298.774 1246.38C266.278 1259.97 229.025 1255.47 200.704 1234.52L168.266 1210.53C136.757 1187.22 121.768 1147.66 129.923 1109.32Z" class="colorEA989C svgShape"></path></svg></g></svg>