<svg width="77" height="77" viewBox="0 0 77 77" fill="none" xmlns="http://www.w3.org/2000/svg">
<g clip-path="url(#clip0_60_60)">
<path d="M48.9202 59.3877L48.3376 56.1436C48.2336 55.5642 47.7196 55.1465 47.1352 55.1578C47.1135 55.1581 47.0917 55.1593 47.0696 55.1607C46.433 55.1886 45.9254 55.7137 45.9254 56.3572C45.9254 56.5324 45.963 56.6987 46.0307 56.8487L46.5628 59.811C46.6621 60.3642 46.5384 60.9217 46.214 61.3807C45.888 61.8424 45.4003 62.1472 44.8408 62.2392C42.8781 62.5623 40.6855 62.7331 38.4999 62.7331C36.309 62.7331 34.1117 62.5617 32.1453 62.237C31.5865 62.1446 31.0991 61.84 30.773 61.379C30.4492 60.9211 30.3247 60.3645 30.4232 59.8121L32.0754 50.5235C32.2226 49.6961 32.8382 49.0431 33.6437 48.8599C35.1049 48.5277 36.7843 48.3521 38.5002 48.3521C40.1998 48.3521 41.867 48.5252 43.322 48.8527C44.128 49.0341 44.7449 49.6862 44.8933 50.5136L45.1204 51.7782C45.2373 52.4293 45.8603 52.8624 46.5109 52.7453C47.162 52.6284 47.5949 52.0059 47.4779 51.3547L47.2508 50.0904C46.9317 48.3125 45.5959 46.9095 43.848 46.5158C42.2231 46.15 40.3739 45.9568 38.5002 45.9568C36.6083 45.9568 34.7453 46.153 33.1126 46.5242C31.366 46.9212 30.0332 48.3265 29.7168 50.1041L28.0646 59.3928C27.8533 60.5806 28.1207 61.7772 28.8173 62.7622C29.5161 63.7501 30.5595 64.4029 31.7551 64.6004C33.848 64.946 36.1805 65.1284 38.4998 65.1284C40.8135 65.1284 43.1407 64.9466 45.2296 64.6028C46.4267 64.4058 47.4712 63.7523 48.17 62.7628C48.8674 61.7756 49.1336 60.577 48.9202 59.3877Z" fill="black"/>
<path d="M76.8891 47.5551L75.511 39.8069C75.3952 39.1556 74.7734 38.7216 74.122 38.8375C73.4708 38.9535 73.0367 39.5752 73.1525 40.2264L74.5307 47.9745C74.948 50.3203 73.5529 52.6077 71.2859 53.295C68.1945 54.2324 64.2921 54.7485 60.2975 54.7485C58.3069 54.7485 56.3648 54.6254 54.5111 54.382L53.8191 50.5284C53.8319 50.5307 53.8444 50.5343 53.8572 50.5364C55.8566 50.8654 58.0837 51.0394 60.2976 51.0394C62.5169 51.0394 64.7489 50.8647 66.7521 50.534C67.909 50.343 68.9184 49.7115 69.5945 48.7553C70.2685 47.8024 70.527 46.6447 70.3228 45.4953L68.7438 36.6184C68.4381 34.8985 67.1484 33.539 65.4583 33.1546C63.8944 32.7989 62.1098 32.6111 60.2976 32.6111C58.5032 32.6111 56.7319 32.7964 55.175 33.1466C53.4836 33.5272 52.1911 34.885 51.8821 36.6051L50.8104 42.5737C50.3895 42.2219 49.9241 41.9198 49.4199 41.6802C48.749 41.3617 48.0546 41.094 47.3493 40.8618L48.6512 33.6113C48.8809 32.3333 49.7088 31.2424 50.866 30.6928C53.7614 29.3184 57.1244 28.9017 60.2975 28.9017C63.457 28.9017 66.8748 29.3205 69.7812 30.718C70.9319 31.2712 71.7541 32.3616 71.9804 33.6349L72.3007 35.4355C72.4167 36.0869 73.0393 36.5209 73.6897 36.405C74.3409 36.289 74.7749 35.6672 74.6591 35.016L74.3388 33.2153C73.9779 31.186 72.6623 29.4454 70.8191 28.559C70.1852 28.2541 69.497 27.9825 68.7672 27.7423V11.9061C68.7672 8.82097 66.4743 6.15666 63.4339 5.70849C61.4007 5.40892 59.1923 5.40907 57.1599 5.70865C54.1194 6.15696 51.8267 8.82127 51.8267 11.9062V27.744C51.1213 27.976 50.4544 28.2373 49.8384 28.5296C48.8055 29.02 47.9375 29.7783 47.3072 30.7055V24.2364C47.3072 21.0358 44.9285 18.2715 41.774 17.8065C39.6526 17.4938 37.3464 17.4938 35.2256 17.8065C32.0713 18.2715 29.6926 21.0357 29.6926 24.2364V30.7062C29.0623 29.7786 28.1941 29.0202 27.1609 28.5296C26.5451 28.2373 25.8781 27.976 25.1726 27.744V11.9062C25.1726 8.82127 22.8798 6.15681 19.8396 5.70865C17.8074 5.40922 15.5991 5.40907 13.5656 5.70865C10.5252 6.15696 8.23234 8.82127 8.23234 11.9062V15.4018C8.23234 16.0632 8.76863 16.5995 9.43005 16.5995C10.0915 16.5995 10.6278 16.0632 10.6278 15.4018V11.9062C10.6278 10.0002 12.041 8.35446 13.915 8.07835C15.7177 7.81276 17.6887 7.81291 19.4904 8.07835C21.3643 8.35461 22.7775 10.0003 22.7775 11.9064C22.7775 11.9064 22.7775 27.1072 22.7775 27.1075C22.7775 26.9771 20.3496 26.7146 20.1175 26.6893C18.9839 26.566 17.8426 26.507 16.7023 26.507C14.6657 26.507 12.6224 26.6898 10.6276 27.1068V20.1921C10.6276 19.5307 10.0913 18.9944 9.4299 18.9944C8.76848 18.9944 8.23219 19.5307 8.23219 20.1921V27.7431C7.50235 27.9831 6.81431 28.2549 6.18042 28.5596C4.33753 29.4457 3.02162 31.1864 2.66068 33.2156L0.110062 47.5552C-0.519622 51.0949 1.59065 54.5482 5.01835 55.5872C8.37702 56.6055 12.4171 57.1439 16.7019 57.1439C18.5225 57.1439 20.3073 57.0453 22.0285 56.8507L21.1933 61.5477C20.5394 65.2238 22.7306 68.81 26.2905 69.8894C29.7995 70.9532 34.0214 71.5157 38.4994 71.5157C39.8081 71.5157 41.1286 71.4647 42.4245 71.3641C43.0839 71.313 43.5771 70.7368 43.5258 70.0774C43.4745 69.4179 42.897 68.9243 42.2391 68.9761C41.0045 69.0718 39.7462 69.1204 38.4991 69.1204C34.3141 69.1204 30.2251 68.5795 26.9853 67.597C24.5861 66.8695 23.1099 64.4492 23.5514 61.9671C23.5514 61.9671 25.9307 48.5885 25.9309 48.5879C26.0922 47.6802 26.164 46.741 26.5603 45.895C26.9711 45.0174 27.6695 44.2946 28.5517 43.8705C30.7581 42.8095 33.2247 42.3352 35.6455 42.0969C36.5927 42.0038 37.5478 41.9646 38.4993 41.9646C41.2188 41.9646 43.9747 42.2852 46.5677 43.128C47.4907 43.428 48.4807 43.7601 49.2418 44.3827C49.8079 44.8458 50.2502 45.461 50.515 46.1424C50.8164 46.9177 50.8035 47.7596 51.0292 48.5499C51.0292 48.5499 52.3054 55.6572 52.3057 55.6585L53.4376 61.9614C53.8841 64.4476 52.4086 66.8718 50.0052 67.5995C49.0444 67.8905 47.998 68.146 46.8947 68.3593C46.2453 68.4849 45.8206 69.1132 45.9462 69.7624C46.0718 70.4118 46.6999 70.8368 47.3495 70.711C48.5332 70.4819 49.6604 70.2065 50.6996 69.8918C54.2659 68.8118 56.4567 65.2204 55.7952 61.5379L54.9532 56.8487C56.6795 57.0445 58.4698 57.1438 60.2967 57.1438C64.5815 57.1438 68.6216 56.6055 71.9801 55.5871C75.4087 54.548 77.5188 51.0951 76.8891 47.5551ZM54.2222 11.9061C54.2222 10 55.6354 8.35446 57.5094 8.0782C59.3111 7.81261 61.2821 7.81246 63.0847 8.0782C64.9585 8.35431 66.3719 10 66.3719 11.9061C66.3719 11.9061 66.3719 27.1059 66.3719 27.1065C66.3693 26.5818 60.9748 26.5069 60.2973 26.5069C59.7672 26.5069 54.2222 26.6929 54.2222 27.1071V11.9061ZM24.2173 45.289C24.0957 45.6016 23.9964 45.923 23.9221 46.2503C23.8075 46.755 23.7329 47.271 23.6424 47.7805C23.3849 47.9846 23.0826 48.1189 22.7537 48.173C20.8808 48.4813 18.7882 48.6442 16.7025 48.6442C14.6113 48.6442 12.5144 48.4806 10.638 48.1707C10.1179 48.0849 9.66436 47.8014 9.36102 47.3725C9.05964 46.9464 8.94429 46.4289 9.03558 45.915L10.6144 37.0381C10.7512 36.2683 11.3238 35.6608 12.0729 35.4906C13.4655 35.1739 15.0664 35.0066 16.7025 35.0066C18.3228 35.0066 19.9124 35.1716 21.299 35.4838C22.0483 35.6526 22.6218 36.2589 22.7602 37.0288L24.2349 45.2413C24.2286 45.2571 24.2235 45.2732 24.2173 45.289ZM26.1871 42.5607L25.1177 36.6051C24.8087 34.885 23.5164 33.5274 21.8249 33.1466C20.2681 32.7962 18.4969 32.6111 16.7023 32.6111C14.8903 32.6111 13.1059 32.7991 11.5417 33.1546C9.85175 33.5388 8.562 34.8984 8.25595 36.6182C8.25595 36.6182 6.67806 45.4897 6.67716 45.4955C6.25982 47.8412 7.90389 50.1472 10.2477 50.5338C14.4827 51.233 18.9064 51.2339 23.1425 50.5362C23.1458 50.5358 23.1491 50.5347 23.1524 50.5341L22.4677 54.3846C20.6203 54.6263 18.6852 54.7485 16.7025 54.7485C12.708 54.7485 8.80548 54.2324 5.71391 53.295C3.44677 52.608 2.0516 50.3207 2.46893 47.9746L5.0194 33.6351C5.24574 32.3619 6.06792 31.2714 7.21856 30.7183C10.1409 29.3132 13.4904 28.902 16.7023 28.902C19.8751 28.902 23.2393 29.3186 26.1336 30.6931C27.291 31.2427 28.1189 32.3334 28.3483 33.6115L29.6502 40.8615C28.4364 41.2612 27.1838 41.7395 26.1871 42.5607ZM44.9121 40.2103C44.9112 39.6611 39.224 39.5696 38.4999 39.5696C36.3502 39.5696 34.1926 39.7639 32.0882 40.21V24.2363C32.0882 22.2144 33.5872 20.469 35.5751 20.176C36.5202 20.0366 37.5043 19.9662 38.4999 19.9662C39.4955 19.9662 40.4796 20.0368 41.425 20.1762C43.413 20.4692 44.9121 22.2147 44.9121 24.2364C44.9121 24.2364 44.9121 40.21 44.9121 40.2103ZM53.3204 47.7527C53.3204 47.7527 53.0981 46.5153 53.0975 46.5116C53.0165 46.106 52.9111 45.7015 52.7632 45.3147C52.7605 45.3078 52.7584 45.3005 52.7557 45.2938L54.2396 37.0291C54.378 36.2592 54.9515 35.6527 55.7009 35.4841C57.0877 35.1719 58.6772 35.0069 60.2975 35.0069C61.9336 35.0069 63.5345 35.1743 64.9269 35.4909C65.676 35.6611 66.2484 36.2686 66.3853 37.0383L67.9642 45.9153C68.0555 46.4291 67.9402 46.9466 67.6386 47.3726C67.3353 47.8017 66.8817 48.0852 66.3617 48.1711C64.4854 48.4809 62.3883 48.6445 60.2973 48.6445C58.2116 48.6445 56.1189 48.4815 54.2459 48.1733C53.8997 48.1163 53.5845 47.9724 53.3204 47.7527Z" fill="black"/>
</g>
<defs>
<clipPath id="clip0_60_60">
<rect width="77" height="77" fill="white"/>
</clipPath>
</defs>
</svg>
