<svg width="61" height="61" viewBox="0 0 61 61" fill="none" xmlns="http://www.w3.org/2000/svg">
<g clip-path="url(#clip0_58_42)">
<path d="M31.1801 3.24051L32.8675 4.65063L33.9855 5.58691L35.3509 5.06585L37.404 4.27991L38.5405 6.16137L39.2953 7.4111L40.7551 7.36002L42.9537 7.28301L43.4189 9.43303L43.7285 10.8594L45.1237 11.2847L47.2276 11.9276L46.9703 14.1113L46.7987 15.5613L47.9799 16.4169L49.7631 17.7065L48.808 19.6911L48.1751 21.008L49.017 22.2018L50.2853 23.9987L48.7395 25.5642L47.7137 26.6038L48.1216 28.0063L48.7345 30.1165L46.766 31.0938L45.4578 31.743L45.3857 33.2028L45.28 35.4025L43.1014 35.6874L41.6527 35.8764L41.1131 37.2343L40.2999 39.2798L38.1448 38.8422L36.7136 38.5512L35.7636 39.6629L34.3324 41.3292L32.4374 40.2151L31.1778 39.4741L29.9182 40.2151L28.0207 41.3292L26.5894 39.6604L25.6381 38.5512L24.2094 38.8422L22.0543 39.2798L21.2411 37.2343L20.7015 35.8764L19.2528 35.6874L17.073 35.4025L16.9674 33.2053L16.8952 31.7455L15.5871 31.0977L13.6185 30.119L14.2315 28.0089L14.6394 26.6063L13.6147 25.5667L12.0689 24.0012L13.3372 22.2031L14.1791 21.0093L13.5462 19.6913L12.59 17.7079L14.3745 16.4183L15.5571 15.5627L15.3843 14.1127L15.1269 11.929L17.2297 11.286L18.625 10.8596L18.9346 9.43458L19.3997 7.28456L21.5994 7.36157L23.0581 7.41265L23.8129 6.16408L24.952 4.28262L27.0037 5.06856L28.3691 5.59078L29.4871 4.6545L31.1801 3.24051ZM31.1801 0L27.8961 2.74325L23.9008 1.2149L21.6873 4.87334L17.4122 4.72667L16.5057 8.90481L12.4147 10.1534L12.9158 14.4012L9.44851 16.9117L11.3025 20.769L8.84058 24.267L11.8462 27.3112L10.6512 31.4196L14.4824 33.3222L14.6875 37.5973L18.9291 38.1506L20.5097 42.1248L24.7028 41.2743L27.4882 44.521L31.1789 42.3547L34.8683 44.521L37.6526 41.2743L41.847 42.1248L43.4276 38.1506L47.668 37.5973L47.8731 33.3222L51.7043 31.4196L50.5094 27.3112L53.5161 24.267L51.054 20.769L52.9057 16.9117L49.4425 14.4023L49.9425 10.1545L45.85 8.90597L44.9435 4.72783L40.6685 4.8745L38.4571 1.21606L34.4593 2.74441L31.1801 0ZM41.3532 44.5647L38.5914 44.0051L36.756 46.1428L35.4031 47.7208L33.6101 46.6689L31.1803 45.2402L28.7493 46.6689L26.9575 47.7197L25.6021 46.1441L23.7678 44.004L21.0049 44.5635L19.5214 44.8644V61.0002H19.7664L31.1791 50.7201L42.5908 61.0002H42.8382V44.8656L41.3532 44.5647ZM19.8691 23.435C19.1803 23.435 18.6256 22.878 18.6256 22.1915C18.6256 16.5311 22.4767 11.7088 27.9866 10.4628C28.6532 10.3147 29.3221 10.7313 29.4737 11.4016C29.6243 12.0718 29.2038 12.737 28.535 12.8887C24.2324 13.8598 21.1099 17.7719 21.1099 22.1888C21.1126 22.878 20.5567 23.435 19.8691 23.435Z" fill="black"/>
</g>
<defs>
<clipPath id="clip0_58_42">
<rect width="61" height="61" fill="white"/>
</clipPath>
</defs>
</svg>
