<svg width="77" height="77" viewBox="0 0 77 77" fill="none" xmlns="http://www.w3.org/2000/svg">
<g clip-path="url(#clip0_60_82)">
<path d="M47.8954 52.375C46.9932 51.3107 45.6967 50.6786 44.3102 50.6167C44.1502 50.3257 43.9616 50.0481 43.7428 49.7898C42.7922 48.6685 41.4037 48.0253 39.9337 48.0253C39.3628 48.0253 38.8757 48.4383 38.7821 49.0015L38.6934 49.536C38.1421 48.6882 37.4437 47.929 36.6155 47.3004C36.4864 46.3739 36.0995 45.4927 35.4799 44.7618C34.5292 43.6405 33.141 42.9973 31.6708 42.9974C31.0999 42.9974 30.6128 43.4104 30.5192 43.9736L29.3238 51.1782C29.3238 51.1787 29.3238 51.1791 29.3236 51.1796L28.7485 54.6452C28.2002 53.8026 27.5063 53.0476 26.6841 52.4212C26.5688 51.4608 26.1763 50.5448 25.536 49.7895C24.5854 48.6682 23.1969 48.025 21.7269 48.025C21.1561 48.025 20.6689 48.438 20.5754 49.0012L19.38 56.2059C19.3703 56.2643 19.3667 56.3225 19.366 56.3807L19.2777 56.9123C18.7388 56.0837 18.0597 55.3394 17.2563 54.7195C17.1603 53.7156 16.7621 52.7548 16.0953 51.9684C15.1447 50.8471 13.7564 50.2039 12.2862 50.2039C11.7153 50.2039 11.2282 50.6168 11.1346 51.18L10.6943 53.8334C10.6932 53.8395 10.6913 53.8457 10.6904 53.8519L7.07499 75.6414C7.01875 75.9798 7.11439 76.3255 7.33622 76.5872C7.55805 76.8489 7.88364 76.9996 8.22668 76.9996H17.3219H17.3237V77H26.4166H26.419H35.5119H35.5136H44.6087C45.1796 77 45.6667 76.5869 45.7603 76.0238L49.0126 56.4213C49.2531 54.9712 48.846 53.4964 47.8954 52.375ZM40.1969 54.736L40.656 51.9687C40.656 51.9687 40.656 51.9684 40.656 51.9681L40.8932 50.5383C41.3024 50.6965 41.6705 50.956 41.9617 51.2993C42.4035 51.8206 42.6248 52.4853 42.5885 53.1595C42.5882 53.1641 42.5878 53.1688 42.5875 53.1735C42.5821 53.2669 42.5721 53.3606 42.5565 53.4539L42.2619 55.2298H40.1151L40.1969 54.736ZM32.6306 45.5106C33.0398 45.6688 33.4079 45.9281 33.6991 46.2714C34.1285 46.778 34.3468 47.4201 34.3261 48.0745C34.3252 48.103 34.3252 48.1316 34.3232 48.16C34.3175 48.2486 34.3086 48.3375 34.2939 48.4261L33.9993 50.2019H31.8524L32.6306 45.5106ZM22.6867 50.5386C23.096 50.6968 23.4641 50.9563 23.7553 51.2996C24.1869 51.8087 24.4057 52.4547 24.3822 53.1129C24.3812 53.1428 24.3801 53.1726 24.378 53.202C24.3723 53.2861 24.3642 53.3703 24.3502 53.4542L24.0822 55.0693L24.0556 55.2299H21.9088L22.6867 50.5386ZM12.5242 57.0671L12.9942 54.2345C12.9942 54.2342 12.9942 54.2339 12.9944 54.2336L13.2458 52.7175C13.655 52.8758 14.0232 53.135 14.3143 53.4783C14.7514 53.994 14.9714 54.65 14.9413 55.3165C14.9403 55.3392 14.9383 55.361 14.937 55.3832C14.9311 55.4665 14.9231 55.5496 14.9094 55.633L14.7621 56.5209L14.6147 57.4088H12.4677L12.5242 57.0671ZM18.3071 62.7615L16.332 74.6653H9.60351L12.0792 59.7433H15.6039C15.7823 59.7433 15.9525 59.703 16.1052 59.6302C16.4409 59.4705 16.6913 59.1541 16.7555 58.7669L16.9397 57.6565C18.0744 59.0712 18.5934 60.9208 18.3071 62.7615ZM25.4266 74.6656H18.7002L20.6013 63.2086C20.6065 63.1772 20.6103 63.1456 20.6151 63.114L21.5358 57.5646H25.0447C25.6156 57.5646 26.1027 57.1515 26.1963 56.5884L26.3976 55.3743C27.5379 56.7857 28.062 58.6339 27.7805 60.4776L25.4266 74.6656ZM34.5219 74.6655H27.7955L30.0726 60.9429C30.0795 60.9013 30.0848 60.8595 30.0909 60.8178L31.4649 52.5366H34.9887C35.2028 52.5366 35.4051 52.4785 35.5793 52.3761C35.8695 52.2057 36.0819 51.9123 36.1402 51.5602L36.3532 50.2769C37.4891 51.6917 38.0082 53.5415 37.7208 55.3853L34.5219 74.6655ZM46.7092 56.0395L43.6189 74.6658H36.8901L39.7275 57.5644H43.2514C43.8223 57.5644 44.3094 57.1513 44.403 56.5882L44.6313 55.2122L44.8596 53.8361C44.8596 53.8359 44.8596 53.8358 44.8596 53.8358C44.8782 53.7227 44.8918 53.6096 44.9027 53.4968C44.9056 53.467 44.9077 53.4374 44.9103 53.4075C44.9176 53.3142 44.9224 53.2211 44.9244 53.1282C44.9247 53.1123 44.9267 53.0966 44.9268 53.0808C45.3835 53.2329 45.7953 53.5081 46.1143 53.8845C46.6205 54.4819 46.8375 55.2672 46.7092 56.0395Z" fill="black"/>
<path d="M65.3813 1.70817C65.3796 1.70772 65.3777 1.70712 65.376 1.70652L60.9284 0.302924C57.4989 -0.779287 53.8287 1.13052 52.7465 4.56003L44.7441 29.9219C44.5499 30.5367 44.8912 31.1924 45.5061 31.3863C46.1211 31.5801 46.7766 31.2392 46.9705 30.6242L54.9729 5.26236C55.6334 3.16922 57.796 1.95812 59.8991 2.44028C59.8931 2.44404 59.8872 2.4484 59.8814 2.45216C59.858 2.4672 59.8353 2.48329 59.812 2.49863C59.7529 2.53788 59.6938 2.57758 59.6359 2.61864C59.6066 2.63954 59.5779 2.6612 59.5487 2.6824C59.4979 2.71985 59.4472 2.75775 59.3972 2.7967C59.3667 2.82046 59.3365 2.84498 59.3066 2.86934C59.259 2.90784 59.2121 2.94679 59.1656 2.98664C59.1356 3.01236 59.1058 3.03838 59.0763 3.06455C59.0306 3.1053 58.9856 3.14681 58.941 3.18892C58.9128 3.21554 58.8843 3.24201 58.8566 3.26923C58.8106 3.31405 58.7658 3.36006 58.7209 3.40638C58.6961 3.4321 58.671 3.45722 58.6465 3.48339C58.5946 3.53888 58.5441 3.59603 58.494 3.65348C58.4782 3.67152 58.462 3.68897 58.4463 3.70717C58.3812 3.78356 58.3179 3.86177 58.2561 3.94147C58.2421 3.95952 58.229 3.97832 58.2152 3.99652C58.1681 4.05848 58.1218 4.12104 58.077 4.18496C58.0562 4.21443 58.0365 4.24481 58.0161 4.27474C57.9795 4.32873 57.9433 4.38302 57.9082 4.43837C57.8867 4.47235 57.8661 4.50664 57.8452 4.54108C57.8129 4.59432 57.7812 4.64786 57.7503 4.702C57.7297 4.73794 57.7097 4.77434 57.6897 4.81103C57.6599 4.86563 57.6312 4.92082 57.6031 4.97646C57.5844 5.01331 57.5658 5.05031 57.5477 5.0876C57.5199 5.1455 57.4932 5.204 57.4668 5.26281C57.4506 5.2992 57.434 5.3353 57.4183 5.37229C57.3907 5.43726 57.3647 5.50328 57.339 5.56975C57.3267 5.60134 57.3137 5.63247 57.302 5.66435C57.2656 5.76301 57.2309 5.86302 57.1988 5.96438L45.9063 41.7531C45.8753 41.8515 45.8471 41.9503 45.8207 42.0493C45.8122 42.0814 45.8049 42.1136 45.797 42.146C45.7803 42.213 45.7639 42.2801 45.7491 42.3475C45.7409 42.3861 45.7335 42.4246 45.726 42.4633C45.7138 42.5246 45.7022 42.5859 45.6919 42.6475C45.6849 42.6884 45.6789 42.7293 45.6728 42.7704C45.6639 42.8301 45.6558 42.8898 45.6485 42.9495C45.6436 42.991 45.6389 43.0327 45.6347 43.0743C45.6287 43.1342 45.6237 43.1942 45.6194 43.254C45.6164 43.2949 45.6133 43.336 45.6111 43.3771C45.6078 43.4392 45.606 43.5011 45.6045 43.5632C45.6036 43.6019 45.6019 43.6402 45.6018 43.6789C45.6013 43.7485 45.6027 43.8182 45.6046 43.8876C45.6054 43.9183 45.6052 43.949 45.6064 43.9797C45.6103 44.0792 45.6164 44.1788 45.6251 44.278C45.6267 44.2973 45.6294 44.3164 45.6312 44.3357C45.6389 44.416 45.6475 44.4963 45.6582 44.5763C45.663 44.6124 45.6691 44.6485 45.6747 44.6846C45.6842 44.7476 45.694 44.8104 45.7054 44.8731C45.7128 44.9133 45.7212 44.9535 45.7291 44.9935C45.741 45.052 45.7531 45.1105 45.7664 45.1688C45.7759 45.21 45.786 45.2511 45.7965 45.2923C45.8108 45.3494 45.826 45.4064 45.8419 45.4633C45.8535 45.5042 45.8651 45.5451 45.8774 45.5858C45.8947 45.6431 45.9131 45.7003 45.932 45.7571C45.9451 45.7965 45.958 45.8359 45.9719 45.875C45.9931 45.9348 46.0156 45.9943 46.0385 46.0536C46.0522 46.0891 46.0653 46.1248 46.0797 46.1602C46.0833 46.1691 46.0863 46.1781 46.0901 46.187C44.0935 45.3733 43.0203 43.1422 43.6802 41.0505L45.376 35.6757C45.5702 35.0609 45.2289 34.4052 44.614 34.2113C43.9991 34.017 43.3435 34.3584 43.1496 34.9734L41.4538 40.3482C40.3718 43.7777 42.2817 47.4481 45.7111 48.5302L50.158 49.9335C50.1598 49.9341 50.1619 49.9347 50.1637 49.9353C50.8143 50.1406 51.4735 50.2382 52.1221 50.2382C54.8924 50.2382 57.4688 48.4573 58.3457 45.6785L65.977 21.4931C66.1711 20.8783 65.8299 20.2226 65.215 20.0288C64.5999 19.8345 63.9445 20.1758 63.7506 20.7908L56.1193 44.9762C55.4245 47.178 53.0679 48.404 50.8663 47.7094C49.7998 47.3726 48.928 46.641 48.4118 45.6489C47.8955 44.6566 47.7966 43.5229 48.1333 42.4564L59.4258 6.66746C60.1206 4.46574 62.4771 3.2396 64.679 3.93426C66.8807 4.62906 68.1068 6.98538 67.4122 9.18725L65.3264 15.7972C65.1322 16.412 65.4735 17.0677 66.0884 17.2616C66.7032 17.4559 67.3589 17.1143 67.5528 16.4995L69.6385 9.88958C70.7203 6.46067 68.8106 2.79023 65.3813 1.70817Z" fill="black"/>
</g>
<defs>
<clipPath id="clip0_60_82">
<rect width="77" height="77" fill="white"/>
</clipPath>
</defs>
</svg>
